<?xml version="1.0" encoding="utf-8"?>
<!-- Generator: Adobe Illustrator 15.0.2, SVG Export Plug-In . SVG Version: 6.00 Build 0)  -->
<!DOCTYPE svg PUBLIC "-//W3C//DTD SVG 1.1//EN" "http://www.w3.org/Graphics/SVG/1.1/DTD/svg11.dtd">
<svg xmlns="http://www.w3.org/2000/svg" xmlns:xlink="http://www.w3.org/1999/xlink" version="1.1" id="Layer_1" x="0px" y="0px" width="200px" height="200px" viewBox="0 0 200 200" xml:space="preserve">
<path fill="#33CCFF" d="M200,37.949c-7.344,3.281-15.273,5.469-23.555,6.445c8.477-5.078,14.961-13.125,18.047-22.695  c-7.93,4.688-16.719,8.125-26.055,9.961c-7.5-7.969-18.164-12.93-29.961-12.93c-22.656,0-41.016,18.359-41.016,41.016  c0,3.203,0.352,6.367,1.055,9.375C64.414,67.402,34.18,51.074,13.906,26.23c-3.516,6.055-5.547,13.125-5.547,20.625  c0,14.258,7.266,26.797,18.242,34.141c-6.719-0.195-13.047-2.07-18.594-5.156c0,0.156,0,0.352,0,0.508  c0,19.883,14.141,36.445,32.93,40.234c-3.438,0.938-7.07,1.445-10.82,1.445c-2.656,0-5.234-0.273-7.734-0.742  c5.234,16.328,20.391,28.164,38.32,28.516c-14.023,11.016-31.719,17.578-50.977,17.578c-3.281,0-6.562-0.195-9.766-0.586  c18.164,11.641,39.727,18.438,62.891,18.438c75.469,0,116.758-62.539,116.758-116.758c0-1.758-0.039-3.555-0.117-5.312  C187.539,53.418,194.492,46.191,200,37.949z"/>
</svg>
